<mxfile host="app.diagrams.net" agent="Mozilla/5.0 (Windows NT 10.0; Win64; x64) AppleWebKit/537.36 (KHTML, like Gecko) Chrome/130.0.0.0 Safari/537.36" version="24.8.1">
  <diagram name="Страница — 1" id="J_2VyzJzFuF2ogFrnwSf">
    <mxGraphModel dx="1034" dy="446" grid="1" gridSize="10" guides="1" tooltips="1" connect="1" arrows="1" fold="1" page="1" pageScale="1" pageWidth="827" pageHeight="1169" math="0" shadow="0">
      <root>
        <mxCell id="0" />
        <mxCell id="1" parent="0" />
        <mxCell id="8t04a-it8ekjUg8UH5_m-1" value="" style="ellipse;whiteSpace=wrap;html=1;" vertex="1" parent="1">
          <mxGeometry x="470" y="110" width="50" height="50" as="geometry" />
        </mxCell>
        <mxCell id="8t04a-it8ekjUg8UH5_m-2" value="Возникла потребность&lt;div&gt;найти билеты, клиент перешел&lt;/div&gt;&lt;div&gt;к поиску билетов и нажал кнопку&lt;/div&gt;" style="text;html=1;align=center;verticalAlign=middle;resizable=0;points=[];autosize=1;strokeColor=none;fillColor=none;" vertex="1" parent="1">
          <mxGeometry x="390" y="152.5" width="210" height="60" as="geometry" />
        </mxCell>
        <mxCell id="8t04a-it8ekjUg8UH5_m-7" value="" style="endArrow=classic;html=1;rounded=0;" edge="1" parent="1">
          <mxGeometry width="50" height="50" relative="1" as="geometry">
            <mxPoint x="520" y="134.7" as="sourcePoint" />
            <mxPoint x="600" y="134.7" as="targetPoint" />
          </mxGeometry>
        </mxCell>
        <mxCell id="8t04a-it8ekjUg8UH5_m-8" value="Заполнить данные" style="rounded=1;whiteSpace=wrap;html=1;" vertex="1" parent="1">
          <mxGeometry x="600" y="105" width="120" height="60" as="geometry" />
        </mxCell>
        <mxCell id="8t04a-it8ekjUg8UH5_m-11" value="" style="endArrow=classic;html=1;rounded=0;" edge="1" parent="1">
          <mxGeometry width="50" height="50" relative="1" as="geometry">
            <mxPoint x="660" y="165" as="sourcePoint" />
            <mxPoint x="660" y="235" as="targetPoint" />
          </mxGeometry>
        </mxCell>
        <mxCell id="8t04a-it8ekjUg8UH5_m-12" value="Отображение доступных вариантов для отпуска" style="rounded=1;whiteSpace=wrap;html=1;" vertex="1" parent="1">
          <mxGeometry x="600" y="236" width="120" height="60" as="geometry" />
        </mxCell>
        <mxCell id="8t04a-it8ekjUg8UH5_m-13" value="" style="endArrow=classic;html=1;rounded=0;entryX=0.5;entryY=1;entryDx=0;entryDy=0;" edge="1" parent="1" target="8t04a-it8ekjUg8UH5_m-15">
          <mxGeometry width="50" height="50" relative="1" as="geometry">
            <mxPoint x="800" y="270" as="sourcePoint" />
            <mxPoint x="800" y="180" as="targetPoint" />
          </mxGeometry>
        </mxCell>
        <mxCell id="8t04a-it8ekjUg8UH5_m-14" value="" style="endArrow=none;html=1;rounded=0;" edge="1" parent="1">
          <mxGeometry width="50" height="50" relative="1" as="geometry">
            <mxPoint x="720" y="270" as="sourcePoint" />
            <mxPoint x="800" y="270" as="targetPoint" />
          </mxGeometry>
        </mxCell>
        <mxCell id="8t04a-it8ekjUg8UH5_m-15" value="" style="rhombus;whiteSpace=wrap;html=1;" vertex="1" parent="1">
          <mxGeometry x="772" y="107.5" width="55" height="55" as="geometry" />
        </mxCell>
        <mxCell id="8t04a-it8ekjUg8UH5_m-16" value="&lt;b&gt;&lt;font style=&quot;font-size: 36px;&quot;&gt;Х&lt;/font&gt;&lt;/b&gt;" style="text;html=1;align=center;verticalAlign=middle;resizable=0;points=[];autosize=1;strokeColor=none;fillColor=none;" vertex="1" parent="1">
          <mxGeometry x="774.5" y="105" width="50" height="60" as="geometry" />
        </mxCell>
        <mxCell id="8t04a-it8ekjUg8UH5_m-17" value="Выбран нужный&lt;div&gt;вариант?&lt;/div&gt;" style="text;html=1;align=center;verticalAlign=middle;resizable=0;points=[];autosize=1;strokeColor=none;fillColor=none;" vertex="1" parent="1">
          <mxGeometry x="744.5" y="70" width="110" height="40" as="geometry" />
        </mxCell>
        <mxCell id="8t04a-it8ekjUg8UH5_m-19" value="Отображение информации о билетах" style="rounded=1;whiteSpace=wrap;html=1;" vertex="1" parent="1">
          <mxGeometry x="850" y="236" width="120" height="60" as="geometry" />
        </mxCell>
        <mxCell id="8t04a-it8ekjUg8UH5_m-20" value="Да" style="text;html=1;align=center;verticalAlign=middle;resizable=0;points=[];autosize=1;strokeColor=none;fillColor=none;" vertex="1" parent="1">
          <mxGeometry x="867" y="110" width="40" height="30" as="geometry" />
        </mxCell>
        <mxCell id="8t04a-it8ekjUg8UH5_m-21" value="" style="endArrow=none;html=1;rounded=0;" edge="1" parent="1">
          <mxGeometry width="50" height="50" relative="1" as="geometry">
            <mxPoint x="827" y="134.72" as="sourcePoint" />
            <mxPoint x="907" y="134.72" as="targetPoint" />
          </mxGeometry>
        </mxCell>
        <mxCell id="8t04a-it8ekjUg8UH5_m-22" value="" style="endArrow=classic;html=1;rounded=0;exitX=1.006;exitY=0.868;exitDx=0;exitDy=0;exitPerimeter=0;entryX=0.474;entryY=-0.029;entryDx=0;entryDy=0;entryPerimeter=0;" edge="1" parent="1" target="8t04a-it8ekjUg8UH5_m-19">
          <mxGeometry width="50" height="50" relative="1" as="geometry">
            <mxPoint x="907.24" y="134.04000000000002" as="sourcePoint" />
            <mxPoint x="960" y="210" as="targetPoint" />
          </mxGeometry>
        </mxCell>
        <mxCell id="8t04a-it8ekjUg8UH5_m-23" value="" style="endArrow=none;html=1;rounded=0;" edge="1" parent="1">
          <mxGeometry width="50" height="50" relative="1" as="geometry">
            <mxPoint x="970" y="265.72" as="sourcePoint" />
            <mxPoint x="1050" y="265.72" as="targetPoint" />
          </mxGeometry>
        </mxCell>
        <mxCell id="8t04a-it8ekjUg8UH5_m-24" value="" style="endArrow=classic;html=1;rounded=0;entryX=0.5;entryY=1;entryDx=0;entryDy=0;" edge="1" parent="1" target="8t04a-it8ekjUg8UH5_m-25">
          <mxGeometry width="50" height="50" relative="1" as="geometry">
            <mxPoint x="1050" y="266" as="sourcePoint" />
            <mxPoint x="1050" y="159" as="targetPoint" />
          </mxGeometry>
        </mxCell>
        <mxCell id="8t04a-it8ekjUg8UH5_m-25" value="Переход к покупке билетов" style="rounded=1;whiteSpace=wrap;html=1;" vertex="1" parent="1">
          <mxGeometry x="990" y="105" width="120" height="60" as="geometry" />
        </mxCell>
        <mxCell id="8t04a-it8ekjUg8UH5_m-26" value="" style="endArrow=none;dashed=1;html=1;dashPattern=1 3;strokeWidth=2;rounded=0;" edge="1" parent="1">
          <mxGeometry width="50" height="50" relative="1" as="geometry">
            <mxPoint x="340" y="220" as="sourcePoint" />
            <mxPoint x="1160" y="220" as="targetPoint" />
          </mxGeometry>
        </mxCell>
        <mxCell id="8t04a-it8ekjUg8UH5_m-27" value="Пользователь" style="text;html=1;align=center;verticalAlign=middle;resizable=0;points=[];autosize=1;strokeColor=none;fillColor=none;rotation=-90;" vertex="1" parent="1">
          <mxGeometry x="307" y="135" width="100" height="30" as="geometry" />
        </mxCell>
        <mxCell id="8t04a-it8ekjUg8UH5_m-28" value="Система" style="text;html=1;align=center;verticalAlign=middle;resizable=0;points=[];autosize=1;strokeColor=none;fillColor=none;rotation=-90;" vertex="1" parent="1">
          <mxGeometry x="322" y="266" width="70" height="30" as="geometry" />
        </mxCell>
      </root>
    </mxGraphModel>
  </diagram>
</mxfile>
